# xmcd
#
# Track frame offsets:
#	150
#	15562
#	26500
#	38963
#	54228
#	68900
#	86906
#	98537
#	114662
#	130503
#	144437
#	154673
#	169037
#	183506
#	197907
#
# Disc length: 2821 seconds
#
# Revision: 0
# Processed by: cddbd v1.5.2PL0 Copyright (c) Steve Scherf et al.
# Submitted via: EasyCDDAExtractor 16.0.6.1
#
DISCID=c00b030f
DTITLE=Συλλογικός δίσκος - Ένας φίλος απ' τα παλιά 2
DYEAR=2011
DGENRE=Ελαφρά
TTITLE0=Γούναρης Νίκος-Τρίο Μπελκάντο - Πάμε στα μπουζούκια
TTITLE1=Λώρεν Σοφία-Μαρούδας Τώνης - Τι είν' αυτό που το λένε αγάπη
TTITLE2=Μαρούδας Τώνης - Εγώ θα κόψω το κρασί
TTITLE3=Μαρούδας Τώνης - Απόψε φίλα με
TTITLE4=Νικολαΐδου Κούλα - Μ' αρέσεις
TTITLE5=Παναγόπουλος Σώτος - Κάποιο δειλινό
TTITLE6=Μπελίντα Καίτη - Λατρεία μου
TTITLE7=Πολυμέρης Φώτης-Χαρίτου Τζένη - Εχθές το δειλινό που τά 'πια
TTITLE8=Παναγόπουλος Σώτος - Μόνο κοντά σου
TTITLE9=Πολυμέρης Φώτης-Μαρκαντωνάτος Μπάμπης - Η κιθάρα του πατέρα
TTITLE10=Πολυμέρης Φώτης - Θα γυρίσει ο τροχός
TTITLE11=Τρίο Κιτάρα - Για μιά κιθαρίτσα
TTITLE12=Χατζοπούλου Μαριάνα - Άλλος σ' αγάπησε κι άλλος σε παίρνει
TTITLE13=Μαρούδας Τώνης-Τρίο Μπελκάντο - Και η βάρκα γύρισε μόνη
TTITLE14=Λουκάς Γιώργος - Τι τα θες, τι τα γυρεύεις
EXTD=
EXTT0=
EXTT1=
EXTT2=
EXTT3=
EXTT4=
EXTT5=
EXTT6=
EXTT7=
EXTT8=
EXTT9=
EXTT10=
EXTT11=
EXTT12=
EXTT13=
EXTT14=
PLAYORDER=
